<svg version="1.1" xmlns="http://www.w3.org/2000/svg" style="display: block;" viewBox="0 0 2048 1024" width="2048" height="1024">
<path transform="translate(0,0)" fill="rgb(254,254,254)" d="M 0 0 L 2046.25 0 C 2048.75 3.75313 2047.99 9.76244 2047.99 14.1208 L 2048.02 767.612 L 2048.01 954.147 C 2048.01 967.073 2049.66 1011.74 2047.62 1020.8 C 2047.36 1021.98 2046.85 1022.96 2046.25 1024 L 0 1024 L 0 0 z"/>
<path transform="translate(0,0)" fill="rgb(0,0,0)" d="M 174.478 564.525 C 174.687 564.602 174.904 564.66 175.104 564.757 C 176.409 565.387 177.404 566.022 177.855 567.411 C 179.344 571.991 176.87 578.44 174.744 582.472 C 173.168 585.462 172.331 585.601 169.228 586.539 A 47.1518 47.1518 0 0 1 167.113 584.87 C 165.634 583.631 164.521 582.065 164.407 580.125 C 164.074 574.415 170.933 568.527 174.478 564.525 z"/>
<path transform="translate(0,0)" fill="rgb(0,0,0)" d="M 904.533 283.391 C 915.396 282.66 977.625 285.452 984.162 290.456 C 978.523 293.612 967.828 292.825 961.478 292.901 C 934.796 291.696 909.761 285.368 883.081 291.121 L 881.998 289.959 L 882.916 288.134 C 888.392 284.316 898.023 284.142 904.533 283.391 z"/>
<path transform="translate(0,0)" fill="rgb(0,0,0)" d="M 1434.38 270.499 C 1439.07 270.239 1443.9 269.715 1448.57 270.342 C 1450.41 271.627 1450.91 271.555 1451.36 273.834 C 1444.99 279.719 1380.24 281.684 1366.75 281.868 C 1359.91 282.214 1353.21 281.851 1346.38 281.41 C 1373.74 272.436 1405.74 272.757 1434.38 270.499 z"/>
<path transform="translate(0,0)" fill="rgb(0,0,0)" d="M 796.659 298.374 C 834.458 295.659 873.876 307.455 910.666 314.941 C 900.873 316.296 891.569 315.657 881.764 314.731 C 854.518 311.144 825.646 301.698 798.187 302.941 C 790.042 303.309 782.29 305.883 774.242 306.907 L 773.008 305.401 L 774.06 303.57 C 779.88 299.848 789.851 299.08 796.659 298.374 z"/>
<path transform="translate(0,0)" fill="rgb(0,0,0)" d="M 292.713 272.413 A 69.178 69.178 0 0 1 298.296 272.005 C 303.295 271.832 317.43 270.21 320.813 273.357 L 319.971 274.892 C 308.807 281.381 266.485 283.02 252.539 282.466 C 242.76 282.079 232.934 280.506 223.238 279.216 L 222.918 279.2 C 213.874 278.66 205.146 280.45 196.278 281.986 L 195.091 280.935 L 195.907 279.393 C 214.112 268.696 236.435 276.623 256.177 276.149 C 268.32 275.857 280.629 273.76 292.713 272.413 z"/>
<path transform="translate(0,0)" fill="rgb(0,0,0)" d="M 173.159 348.417 C 191.644 347.154 236.539 347.338 253.156 352.27 C 254.841 352.771 255.683 352.921 256.516 354.53 C 250.961 357.661 224.27 355.769 216.239 355.726 C 197.211 355.647 177.644 354.823 158.701 356.624 C 152.529 357.211 140.463 361.588 135.205 360.031 C 134.459 359.81 134.397 359.212 134.048 358.56 C 134.329 357.999 134.627 357.481 135.045 357.005 C 141 350.236 164.548 349.131 173.159 348.417 z"/>
<path transform="translate(0,0)" fill="rgb(0,0,0)" d="M 1846.34 234.499 A 248.595 248.595 0 0 1 1891.07 235.564 C 1900.4 236.671 1937.84 241.977 1943.18 248.76 C 1935.64 251.956 1896 243.586 1884.95 242.872 C 1868.34 238.204 1829.24 242.459 1811.36 245.607 C 1806.47 246.468 1801.32 249.136 1796.59 249.6 C 1794.43 249.812 1793.9 249.135 1792.43 247.796 L 1792.82 246.656 C 1802.28 238.306 1833.27 235.843 1846.34 234.499 z"/>
<path transform="translate(0,0)" fill="rgb(0,0,0)" d="M 490.61 204.179 C 493.332 203.989 496.175 203.757 498.902 203.986 C 505.146 204.508 509.884 206.796 514.832 210.488 C 526.579 219.252 536.611 230.174 547.104 240.369 A 507.27 507.27 0 0 0 575.563 265.749 A 4361.02 4361.02 0 0 0 653.029 329.033 C 686.781 355.977 710.561 372.962 739.344 406.375 C 745.89 401.028 753.271 398.733 760.069 394.095 C 774.368 384.34 788.393 366.537 806.549 364.584 C 831.858 361.862 876.842 406.294 896.218 422.211 C 928.782 400.641 963.539 382.845 995.608 360.426 C 1045.63 325.458 1084.28 287.918 1140.14 260.988 C 1157.29 252.723 1192.44 235.277 1211.06 242.288 C 1227.16 248.347 1245.69 283.991 1255.99 298.077 C 1264.24 309.363 1273.67 319.746 1282.23 330.799 C 1289.35 340.007 1295.03 349.845 1303.26 358.227 C 1313.18 368.322 1350.17 398.585 1354.58 408.304 C 1365.53 403.48 1423.79 347.699 1438.75 335.414 C 1477.07 303.954 1521.25 279.714 1560.9 249.907 C 1561.86 249.182 1563.01 248.477 1563.6 247.396 C 1563.73 247.167 1563.84 246.929 1563.95 246.696 L 1564.61 246.55 C 1563.88 246.254 1563.32 246.181 1562.52 246.126 C 1550.98 245.315 1541.4 254.094 1530.06 255.086 C 1518.16 256.127 1506.69 250.631 1494.82 250.125 C 1488.66 249.863 1483.38 252.608 1477.41 253.066 C 1476.04 253.171 1475.42 253.405 1474.34 252.484 C 1475.01 251.18 1475.63 250.354 1476.84 249.485 C 1490.98 239.303 1517.04 249.583 1533.49 248.204 C 1541.99 247.49 1549.44 241.837 1557.88 240.113 C 1563.83 238.898 1570.01 241.166 1575.54 240.245 C 1580.45 239.427 1598.02 225.796 1603.41 222.434 C 1614.48 215.528 1628.4 207.545 1641.32 205.284 C 1669.37 200.375 1694.76 224.289 1712.11 243.114 C 1715.69 246.989 1726.17 262.58 1730.66 263.712 C 1732.6 264.202 1734.93 263.474 1737.01 264.135 C 1743.7 266.252 1760.56 298.83 1764.36 306.605 C 1767.27 312.547 1765.88 314.361 1764.26 320.178 C 1761.89 328.73 1771.02 330.433 1773.85 336.871 C 1775.33 340.23 1773.25 343.968 1772.01 347.133 L 1774.18 349.938 C 1774.97 350.246 1776.17 350.972 1776.98 350.721 C 1783.14 348.826 1788.96 332.61 1792.31 327.068 C 1793.78 324.641 1795.24 322.673 1798.13 321.937 C 1805.72 323.713 1806.8 335.656 1811.91 340.3 C 1814.69 342.827 1819.85 341.24 1824.33 346.039 C 1827.98 342.702 1831.58 338.463 1832.87 333.627 C 1830.65 334.231 1828.4 334.88 1826.14 335.323 C 1823.42 335.856 1821.79 335.628 1819.53 334.112 L 1819.24 331.882 C 1822.07 323.755 1829.74 317.271 1834.04 309.747 C 1838.26 302.351 1839.42 293.752 1845.24 287.114 C 1847.18 284.9 1849.65 283.008 1852.74 283.035 C 1855.33 283.058 1857.52 284.437 1859.32 286.183 C 1862.34 289.113 1878.63 321.603 1880.35 326.992 C 1881.66 331.101 1881.74 335.217 1881.74 339.493 C 1880.66 342.585 1878.05 344.488 1875.67 346.593 C 1877.32 348.039 1878.94 349.571 1880.4 351.22 C 1883.76 355.046 1887.86 360.46 1887.43 365.83 C 1888.01 365.484 1888.54 365.15 1889.08 364.747 C 1892.73 362.035 1898.06 357.742 1898.69 352.955 C 1895.59 350.45 1892.11 348.431 1889.07 345.908 C 1886.74 343.982 1885.7 341.99 1885.38 338.989 C 1888.15 330.377 1896.18 332.611 1901.06 326.839 C 1901.15 326.732 1901.23 326.619 1901.32 326.509 C 1909.92 317.943 1909.07 298.543 1919.3 291.805 C 1920.1 291.282 1921.48 290.644 1922.45 290.819 C 1926.71 291.584 1930.23 295.705 1932.67 299.002 C 1937.26 305.2 1951.72 326.562 1950.61 333.725 C 1948.22 336.528 1944.33 337.458 1940.95 338.637 C 1945.79 341.959 1950.09 346.763 1953.8 351.279 C 1956.44 354.492 1959.09 359.488 1958.47 363.776 C 1957.96 367.311 1954.94 369.041 1952.24 370.929 C 1956.4 373.503 1961.45 376.828 1964.79 380.395 C 1967.15 382.913 1969.4 387.023 1968.96 390.596 C 1968.64 393.214 1967.75 393.822 1965.8 395.266 C 1964.88 395.119 1963.61 395.124 1962.87 394.561 C 1959.51 391.987 1958.74 387.197 1956.18 383.844 C 1951.61 377.858 1941 372.239 1939.75 364.514 C 1941.19 361.278 1944.54 359.908 1947.56 358.136 C 1945.56 351.262 1936.29 344.626 1932.82 337.761 C 1933.18 331.545 1936.43 332.901 1940.19 329.511 C 1937.02 322.156 1927.73 305.08 1921.75 300.36 C 1922.5 304.46 1914.01 326.705 1911.91 331.749 C 1910.61 334.886 1896.93 339.325 1893.51 340.711 C 1897.03 342.123 1902.96 344.653 1905.39 347.564 A 9.45941 9.45941 0 0 1 1907.55 354.319 C 1907.15 360.251 1899.84 368.141 1895.48 371.88 C 1898.83 373.46 1900.32 377.143 1903.65 378.457 C 1904.52 377.262 1905.41 375.933 1906.52 374.947 C 1907.91 373.714 1908.98 373.505 1910.87 373.846 C 1918.91 375.293 1929.34 389.561 1933.58 396.194 C 1935.76 399.597 1938.13 404.299 1936.95 408.436 C 1935.96 411.902 1933.07 413.401 1930.19 415.117 C 1932.64 416.782 1934.96 418.549 1937.13 420.577 C 1940.19 423.445 1945.13 427.64 1945.29 432.065 C 1943.25 434.779 1939.58 434.247 1936.6 436.006 C 1937.82 441.16 1946.56 446.669 1949.47 452.316 L 1947.72 455.1 C 1945.31 455.29 1942.18 453.208 1940.37 451.805 C 1936.07 448.46 1929.02 440.946 1928.34 435.269 C 1930 432.649 1933.2 432.392 1935.51 430.178 C 1932.48 423.69 1924.44 422.061 1922.88 413.936 C 1923.76 410.246 1926.12 409.534 1928.6 406.798 C 1928.7 405.845 1928.66 405.005 1928.42 404.068 C 1926.7 397.317 1915.68 383.39 1909.79 379.741 C 1909.75 380.064 1909.71 380.544 1909.62 380.877 C 1907.3 389.199 1898.21 399.504 1891.08 403.783 C 1892.98 405.327 1894.31 407.29 1895.61 409.342 C 1897.17 411.799 1898.15 413.942 1897.3 416.92 C 1896.11 421.11 1891.71 422.862 1888.17 424.67 C 1892 428.073 1895.72 433.726 1898.19 438.208 C 1900.26 441.945 1901.74 445.86 1900.51 450.117 C 1898.71 453.021 1896.38 453.539 1893.29 454.516 C 1891.1 458.18 1908.1 472.225 1908.23 480.626 C 1908.28 483.428 1907.88 485.538 1905.88 487.628 C 1901.16 490.105 1894.25 491.522 1889.01 490.103 C 1886.66 489.467 1886.34 488.943 1885.17 486.995 C 1886.33 480.701 1891.31 481.599 1895.38 477.891 C 1893.63 471.67 1888.47 466.803 1884.45 461.901 C 1882.06 458.99 1879.85 456.083 1880.23 452.126 C 1882.67 448.983 1885.84 448.529 1889.44 446.977 C 1891.51 440.2 1875.39 429.272 1873.07 422.01 C 1872.21 419.314 1872.65 418.366 1873.8 415.96 C 1877.26 413.011 1880.55 413.689 1884.66 412.606 L 1885.17 412.466 C 1885.15 412.322 1885.13 412.176 1885.1 412.033 C 1884.03 406.818 1866.93 383.151 1862.19 379.931 C 1862.26 380.735 1862.29 381.581 1862.13 382.377 C 1860.6 390.194 1852.88 403.009 1846.54 407.416 C 1842.62 410.043 1836.97 410.92 1832.43 412.138 C 1836.79 414.043 1841.83 415.808 1845.8 418.409 C 1848.43 420.131 1849.85 422.253 1850.43 425.365 C 1849.09 433.27 1835.48 443.603 1829.46 449.184 C 1833.75 449.863 1837.74 449.838 1841.2 452.735 C 1841.66 453.745 1842.56 455.063 1842.48 456.167 C 1841.99 463.176 1831.62 471.068 1826.63 475.659 C 1829.33 476.965 1833.2 478.625 1835.12 481.011 C 1835.93 482.026 1835.6 482.628 1835.46 483.841 C 1834.61 484.368 1833.78 484.772 1832.8 485.007 C 1829.07 485.903 1823.38 484.351 1820.42 481.995 C 1818.89 480.78 1817.9 479.08 1817.76 477.147 C 1817.36 471.203 1826.58 462.358 1830.39 457.775 C 1828.05 454.705 1823.46 455.67 1820.58 452.315 C 1817.45 440.13 1837.2 434.112 1839.34 423.435 C 1838.98 422.882 1838.67 422.512 1838.11 422.135 C 1832.51 418.299 1828.81 413.535 1824.63 408.258 C 1829.37 406.226 1836.17 402.044 1840.1 398.629 C 1840.28 398.472 1840.45 398.311 1840.63 398.152 C 1840.02 393.579 1835.84 391.444 1833.8 387.641 C 1832.74 385.662 1832.78 385.543 1833.37 383.511 C 1835.21 382.437 1836.71 381.495 1838.1 379.872 C 1836.81 375.215 1823.09 356.956 1818.87 354.096 C 1818.15 359.27 1813.4 363.77 1810.32 367.752 C 1806.67 372.476 1809.58 374.457 1810.18 379.461 C 1807.96 383.97 1798.96 389.842 1795.03 393.745 C 1797.62 394.976 1799.88 395.956 1801.79 398.188 C 1802.36 399.905 1802.73 401.416 1802.31 403.223 C 1800.87 409.438 1793.45 416.035 1788.33 419.449 C 1792.38 421.935 1796.68 427.276 1798.71 431.553 C 1800.08 434.417 1800.34 437.802 1799.22 440.794 C 1797.31 445.894 1791.99 447.692 1787.41 449.733 C 1793.87 453.99 1802.21 457.716 1807.27 463.608 C 1809.35 466.033 1810.86 468.829 1810.43 472.144 C 1809.69 477.738 1803.11 481.794 1798.92 484.758 C 1805.05 488.445 1809.87 493.729 1814.69 498.922 L 1814.48 499.919 C 1813.35 499.623 1812.2 499.294 1811.13 498.831 C 1805.12 496.229 1789.73 488.665 1787.26 482.865 C 1789.15 478.392 1797.31 475.703 1800.9 471.648 C 1800.05 468.499 1787.65 461.337 1784.44 458.011 C 1781.63 455.103 1777.3 449.643 1777.62 445.315 C 1778.01 440.082 1786.23 443.229 1789.71 440.526 C 1791.7 432.827 1779.7 424.665 1777.56 417.162 C 1777.59 413.832 1779.26 412.078 1781.26 409.605 C 1781.05 408.97 1780.83 408.443 1780.4 407.92 C 1774.02 400.137 1770.87 387.304 1762.77 381.59 C 1767.18 395.333 1749.15 407.618 1747.52 416.321 C 1750.1 417.07 1751.55 417.18 1753.37 419.247 C 1753 423.802 1745.02 431.29 1742.14 435.082 C 1740.35 437.438 1738.58 440.077 1739 443.166 L 1740.99 444.502 C 1745.3 444.692 1748.61 444.009 1752.72 442.74 C 1752.73 442.93 1752.74 443.12 1752.74 443.31 C 1752.92 449.581 1749.63 455.793 1745.36 460.17 C 1742.4 461.096 1741.77 460.737 1738.95 459.783 C 1738.47 465.449 1751.07 474.517 1754.32 479.89 C 1755.72 482.209 1756.6 484.901 1755.73 487.593 C 1754.39 491.694 1748.29 494.039 1744.73 495.729 C 1749.41 499.243 1754.19 503.471 1757.11 508.61 C 1759.4 512.657 1760.74 517.758 1759.45 522.351 A 13.0853 13.0853 0 0 1 1753.09 530.418 C 1749.77 532.192 1746.14 532.404 1742.57 531.301 C 1739.62 530.391 1736.64 528.755 1735.12 525.997 L 1735.65 524.39 C 1739.31 521.849 1744.47 521.937 1748.69 520.716 C 1750.91 520.076 1750.78 519.971 1751.85 518.034 C 1751.15 509.793 1739.82 500.937 1735.03 494.127 C 1733.33 491.694 1732.55 489.658 1733.04 486.634 C 1735.43 485.168 1740.33 486.495 1743.27 486.772 L 1744.61 485.496 C 1744.45 473.36 1726.41 467.408 1726.18 455.368 C 1728.2 452.578 1730.34 452.49 1733.56 451.432 C 1733.66 450.789 1733.72 450.384 1733.59 449.74 C 1732.12 442.697 1716.86 418.988 1710.69 414.728 C 1712.58 428.573 1693.44 441.612 1690.3 452.573 C 1692.17 455.634 1696.75 455.112 1699.85 457.39 C 1703.84 470.058 1681.66 477.874 1681.31 489.738 C 1681.17 494.384 1687.85 492.546 1690.13 495.126 C 1690.78 495.857 1690.77 495.944 1690.67 496.872 C 1690.04 502.708 1679.51 511.794 1675.21 515.656 C 1678.25 518.123 1683.16 521.905 1683.61 526.023 C 1683.86 528.359 1683.34 529.985 1681.89 531.786 C 1679.56 531.492 1680.07 528.11 1677.71 526.309 C 1673.63 523.195 1668 522.229 1664.71 518.074 C 1664.6 513.941 1668.43 511.906 1669.08 507.659 C 1669.1 507.472 1669.12 507.284 1669.14 507.096 C 1667.33 501.79 1658.94 501.009 1656.31 495.524 C 1657.26 491.506 1661.04 490.692 1662.64 487.341 C 1662.78 487.043 1662.91 486.736 1663.04 486.433 C 1661.89 480.213 1651.06 469.705 1646.01 465.946 C 1649.31 464.115 1654.38 460.606 1656.2 457.316 C 1654.46 450.485 1642.89 445.398 1639.55 438.794 C 1640.58 437.218 1641.6 435.629 1642.51 433.983 C 1644 431.297 1644.21 428.688 1643.35 425.771 C 1641.64 419.894 1633.53 412.5 1628.25 409.633 C 1629.31 413.645 1628.73 417.352 1627.5 421.268 C 1624.92 429.478 1618.66 435.768 1611.22 439.757 C 1612.05 440.409 1612.78 441.06 1613.51 441.825 C 1616.96 445.482 1622.82 451.717 1622.71 456.944 C 1622.63 457.192 1622.57 457.445 1622.47 457.688 C 1621.14 461.123 1614.79 463.445 1611.63 464.927 C 1612.77 465.625 1613.58 466.38 1614.42 467.425 C 1617.75 471.576 1626.18 481.901 1625.55 487.258 C 1623.87 490.908 1618.86 492.469 1615.44 493.951 C 1618.11 495.86 1620.07 498.808 1622.1 501.362 C 1625.63 505.825 1631.51 512.133 1630.41 518.426 C 1630.02 520.63 1628.63 522.473 1626.76 523.659 C 1624.64 525.007 1621.78 525.745 1619.32 524.983 C 1617.06 524.285 1616.95 523.701 1615.84 521.758 C 1616.7 518.57 1619.64 517.586 1621.86 515.169 C 1618.68 507.336 1610.57 497.827 1603.56 493.127 C 1607.63 491.258 1613.27 487.847 1616.3 484.553 C 1614.02 476.535 1605.02 471.544 1602.74 463.679 C 1601.9 460.787 1611.11 457.055 1612.62 454.268 C 1612.69 454.136 1612.75 453.996 1612.81 453.86 C 1610.31 447.838 1597.8 431.215 1592.56 427.229 C 1592.77 427.99 1592.99 428.717 1593.1 429.502 C 1595.15 444.348 1581.58 446.294 1574.97 455.51 C 1573.97 456.911 1573.83 456.989 1574.14 458.652 C 1577.48 459.107 1580.73 459.38 1583.76 460.959 L 1584.35 462.945 C 1581.37 470.155 1569.51 477.487 1562.63 480.784 C 1567.66 482.341 1575.48 485.574 1579.21 489.246 C 1579.11 489.508 1579.03 489.775 1578.92 490.03 C 1577.19 494.079 1562.22 501.858 1557.81 503.549 A 58.6641 58.6641 0 0 1 1560.44 504.666 C 1564.39 506.428 1568.62 508.24 1570.27 512.527 C 1569.81 514.79 1569.56 515.491 1567.48 516.84 C 1565.08 518.393 1560.39 519.068 1557.7 518.105 C 1555.72 517.395 1555.68 516.842 1554.9 515.046 C 1559.08 507.808 1550.64 506.158 1553.74 500.517 C 1555.83 496.7 1561.35 495.207 1562.28 490.602 C 1561.19 485.999 1554.69 484.044 1553.99 478.364 C 1553.05 470.711 1565.42 473.437 1569.45 467.627 C 1569.55 467.482 1569.65 467.332 1569.74 467.185 C 1567.27 463.037 1565.09 460.031 1564.97 455.062 C 1566.75 451.353 1569.48 450.72 1572.68 448.443 C 1575.07 446.748 1577.78 444.048 1578.28 441.068 C 1575.36 438.869 1571.14 439.303 1569 436 C 1568.46 429.037 1580.25 420.227 1579.67 417.509 C 1579.01 414.388 1576.63 414.216 1577.6 410.496 C 1583.43 405.463 1591.11 393.164 1599.19 392.949 C 1605.16 392.79 1610.3 398.969 1614.34 402.66 L 1616 402.126 L 1617.03 399.551 C 1616.32 393.871 1609.18 388.695 1605.39 384.178 C 1602.92 381.23 1599 377.142 1599.36 373.057 C 1603.23 366.22 1607.08 371.182 1612 367.878 C 1611.52 361.8 1603.33 352.06 1600.33 346.548 C 1597.42 341.183 1596.24 334.621 1592.76 329.578 C 1591.66 327.987 1591.63 327.831 1589.76 327.496 C 1586.47 332.608 1587.51 339.26 1584.55 344.575 L 1584.22 345.144 C 1579.75 353.233 1571.15 359.817 1567.57 367.971 C 1569.56 370.865 1571.95 369.124 1574.75 370.696 C 1576.41 371.627 1576.73 373.072 1577.01 374.872 C 1578.1 381.79 1567.52 386.729 1564.01 391.633 C 1566.1 393.178 1567.03 394.399 1568.09 396.771 C 1568.39 399.935 1566.62 402.077 1564.92 404.534 C 1561.76 409.093 1556.3 412.008 1551.73 415.03 C 1550.85 417.121 1553.01 420.993 1553.26 423.517 C 1553.27 423.676 1553.28 423.835 1553.3 423.995 C 1557.36 426.632 1561.52 427.493 1565.19 430.952 C 1565.22 435.621 1560.94 438.237 1559.48 442.354 C 1558.47 445.229 1560.68 448.114 1558.56 451.435 C 1557.77 451.681 1557.01 452.138 1556.2 451.895 C 1552.29 450.725 1548.09 447.232 1546.06 443.713 C 1545.99 440.051 1547.59 439.405 1548.9 436.293 C 1551.46 430.165 1543.05 422.068 1540.67 416.32 C 1539.46 413.383 1538.22 409.695 1539.45 406.606 C 1542.82 404.876 1545.46 407.023 1548.82 405.715 C 1548.89 405.07 1548.97 404.841 1548.78 404.129 C 1547.44 398.888 1537.15 379.266 1533.85 374.732 C 1532.31 372.616 1530.32 371.107 1528.18 369.636 C 1530.71 383.039 1505.22 400.804 1505.07 406.497 C 1507.52 406.326 1509.74 406.335 1512.18 406.528 C 1514.21 407.836 1514.33 407.817 1515 410.11 C 1513.13 420.48 1505.01 423.472 1498.38 429.85 L 1498.45 431.475 C 1503.03 431.283 1507.11 428.566 1511.8 428.497 C 1516.44 428.429 1519.4 430.309 1522.61 433.475 C 1528.11 438.913 1546.49 464.749 1546.51 470.669 C 1544.14 474.265 1538.78 475.88 1534.86 477.06 C 1540.43 480.609 1548.46 493.861 1550.58 500.179 C 1549.56 504.049 1545.64 502.826 1543.82 505.819 C 1542.47 508.027 1553.87 521.985 1554.82 526.453 C 1554.79 526.666 1554.79 526.886 1554.72 527.093 C 1554.11 529.154 1551.32 531.87 1549.42 532.738 C 1547.51 533.61 1544.87 533.849 1542.94 532.963 C 1540.9 532.029 1540.88 531.514 1540.2 529.545 C 1541.24 526.612 1542.21 526.203 1544.66 524.446 C 1543.58 516.938 1531.18 512.494 1532.05 502.975 C 1534.27 499.825 1536.64 499.727 1539.47 497.46 C 1536.75 489.343 1528.29 483.589 1525.15 475.602 C 1524.28 473.38 1524.3 471.47 1525.22 469.265 C 1527.2 466.988 1530.3 467.053 1533.11 466.745 L 1533.49 465.653 C 1528.37 454.046 1521.13 438.519 1509.2 432.96 C 1509.36 433.603 1509.41 433.645 1509.38 434.417 C 1509.05 444.464 1496.6 457.387 1489 463.335 C 1492.49 464.531 1495.27 465.217 1497.48 468.375 C 1498.1 470.448 1498.38 472.112 1497.74 474.231 C 1495.95 480.157 1487.9 487.336 1482.56 490.173 C 1483.24 490.593 1483.85 490.974 1484.45 491.5 C 1488.89 495.337 1494.43 500.714 1494.49 506.976 C 1494.53 511.155 1491.7 514.922 1488.97 517.809 C 1493.18 519.902 1502.9 526.029 1504.89 530.259 C 1505.56 531.666 1505.73 532.941 1505.22 534.393 C 1503.89 538.164 1498.92 540.222 1495.6 541.874 C 1497.59 542.938 1498.8 543.777 1500.07 545.677 C 1500.58 546.445 1500.16 547.3 1499.99 548.179 C 1498.05 549.64 1496.43 550.214 1494.04 550.299 C 1488.78 550.486 1484.18 547.129 1480.58 543.563 C 1477.95 540.964 1475.78 538.287 1475.81 534.535 C 1479.43 532.335 1486.68 534.032 1491.28 532.699 L 1491.97 531.442 C 1488.4 528.123 1484.8 524.806 1481.56 521.166 C 1478.92 518.202 1476.34 515.158 1476.6 510.956 C 1478.38 508.068 1480.24 507.483 1483.18 505.87 C 1484.57 500.367 1474.33 492.569 1471.87 487.295 C 1470.56 484.478 1475.51 481.767 1476.64 478.641 C 1475.87 470.769 1469.79 462.439 1465.27 456.165 C 1463.95 454.336 1462.86 452.686 1460.6 452.29 C 1456.79 457.012 1457.1 464.554 1453.27 468.907 C 1450.4 472.175 1445.98 474.151 1442.75 477.228 C 1442.97 479.799 1448.31 479.429 1450.22 482.038 C 1450.94 483.023 1450.99 484.918 1450.72 486.048 C 1448.36 495.863 1436.34 506.251 1428.06 510.871 C 1431.92 511.375 1436.69 511.425 1439.67 514.154 C 1440.72 516.64 1441.22 517.649 1440.26 520.366 C 1438.55 525.213 1429.63 531.947 1425.2 534.272 C 1428.41 535.165 1433.61 536.113 1435.84 538.696 C 1437.21 540.288 1437.53 541.697 1437.18 543.721 C 1436.2 549.367 1427.54 554.867 1423.11 558.084 C 1424.59 558.932 1426.08 559.784 1427.5 560.718 C 1429.85 562.256 1431.24 563.435 1431.81 566.173 L 1429.89 567.574 C 1425.12 568.319 1419.8 567.525 1415.62 565.025 C 1412.94 563.425 1412.28 561.749 1411.58 558.847 C 1413.02 552.025 1420.42 548.59 1425.3 544.293 L 1425.18 543.003 C 1422.3 542.161 1417.38 541.611 1415.04 539.956 C 1413.42 538.806 1413.64 537.782 1413.43 535.955 C 1415.14 530.492 1424.15 523.814 1428.39 519.859 C 1427.76 518.156 1420.83 519.176 1417.62 517.351 C 1412.82 506.199 1437.22 496.651 1439.48 485.087 C 1394.81 484.841 1354.02 486.76 1309.81 493.486 C 1310.5 494.542 1311.18 495.601 1311.79 496.702 C 1315.96 504.158 1315.23 513.631 1312.91 521.554 C 1309.22 534.187 1299.62 550.269 1287.77 556.707 C 1288.12 557.069 1288.47 557.432 1288.8 557.813 C 1290.88 560.21 1292.63 563.601 1292.33 566.832 C 1297.1 567.449 1301.82 568.134 1306.47 569.343 C 1329.94 575.439 1349.45 591.34 1361.62 612.177 C 1364.6 617.28 1369.62 628.11 1368.01 634.144 C 1387.1 633.109 1405.79 630.556 1424.56 627.004 C 1460.07 620.283 1477.54 611.908 1515.47 615.385 C 1522.54 616.033 1530.55 616.463 1537.12 619.309 L 1537.08 620.367 C 1529.48 622.363 1520.45 621.769 1512.59 622.14 C 1499.3 622.769 1485.74 623.459 1472.54 625.219 C 1457.02 627.291 1442.18 632.145 1426.9 635.431 C 1408.08 639.48 1388.8 641.627 1369.62 643.002 C 1370.38 643.936 1371.19 644.956 1371.72 646.042 C 1377 656.814 1379.75 701.246 1375.57 712.92 C 1372.38 721.831 1367.07 728.001 1358.54 732.057 C 1358.88 732.935 1359.19 733.838 1359.36 734.767 C 1361.56 746.565 1360.68 781.122 1358.43 793.043 C 1357.52 797.87 1355.93 802.691 1353.02 806.701 C 1348.7 812.647 1339.81 814.66 1332.95 815.68 C 1317.42 817.986 1300.67 817.311 1284.97 817.666 C 1234.71 818.802 1173.49 820.81 1124.44 810.649 C 1115.42 808.78 1107.26 804.412 1098.73 801.086 C 1092.08 798.494 1085.12 796.635 1078.2 794.897 C 1067.63 792.242 1045.51 790.152 1037.71 783.991 C 1034.82 781.708 1032.84 777.881 1031.39 774.577 C 1027.4 765.448 1025.27 755.241 1022.04 745.797 C 1017.9 733.716 1010.57 719.802 1008.94 707.255 C 1008.48 703.757 1008.6 699.803 1011.09 697.023 C 1012.52 695.431 1014.8 694.949 1016.82 694.658 C 1029.15 692.89 1042.45 693.005 1054.91 692.304 A 4204.96 4204.96 0 0 0 1141.42 687.305 C 1141.52 687.396 1141.63 687.484 1141.72 687.58 C 1141.88 687.739 1142.04 687.907 1142.2 688.069 C 1142.34 688.217 1142.49 688.359 1142.63 688.51 C 1147.06 693.256 1156.51 716.222 1156.36 723.128 C 1160.6 715.951 1166.15 708.485 1168.7 700.552 C 1174.21 683.44 1173.68 664.205 1178.37 646.718 C 1180.63 638.3 1188.07 624.36 1187.98 616.534 C 1174.57 611.025 1158.53 607.802 1144.46 604.33 A 3522.4 3522.4 0 0 0 1058.72 584.608 C 943.324 559.289 782.877 538.448 667.341 564.5 C 618.855 575.433 572.509 594.543 527.271 614.758 C 486.777 632.853 447.361 654.227 408.404 675.401 C 384.522 688.382 360.6 704.635 334.494 712.572 C 344.811 703.157 358.108 696.044 370.006 688.73 A 1263.39 1263.39 0 0 1 452.326 641.507 C 435.566 634.503 415.877 632.681 398.427 627.092 C 348.4 611.071 279.66 576.48 227.183 579.328 C 229.998 576.445 233.024 573.808 236.041 571.142 C 241.45 571.972 246.926 572.331 252.377 572.787 C 248.155 570.076 241.963 568.14 239.977 563.382 C 240.681 559.804 245.401 556.639 247.933 554.035 C 247.178 550.498 245.373 549.663 243.253 546.871 C 241.772 544.92 240.976 543.124 241.518 540.661 C 242.639 535.564 250.439 530.495 254.562 527.609 C 251.127 524.885 247.502 522.203 244.766 518.75 C 240.039 512.784 235.364 506.042 236.402 498.022 C 237.053 493.003 241.392 490.679 245.145 487.882 C 235.352 478.985 233.305 470.657 227.153 459.602 C 218.39 473.23 218.866 478.071 205.65 490.12 C 207.754 493.361 211.129 497.732 211.138 501.707 C 211.157 509.865 198.3 519.7 193.008 525.496 C 196.822 527.639 201.782 529.562 203.214 533.894 C 201.576 538.683 194.937 539.632 192.372 543.707 C 189.22 548.716 198.279 552.916 199.928 557.272 C 202.186 563.234 196.638 567.495 198.048 572.554 C 198.123 572.825 198.229 573.085 198.317 573.352 C 200.299 579.361 209.096 584.035 208.631 590.312 C 208.35 594.096 205.353 596.493 202.78 598.916 C 206.54 601.72 211.014 604.858 213.306 609.041 C 215.278 612.642 215.966 617.383 214.75 621.336 C 213.678 624.824 211.477 627.745 208.167 629.365 C 205.788 630.529 202.916 630.765 200.451 629.693 C 198.078 628.661 196.445 626.905 195.635 624.538 C 196.862 621.443 202.866 618.788 205.68 616.663 C 210.026 607.21 194.455 604.692 191.703 596.873 C 192.93 593.609 194.544 593.61 197.296 591.677 C 199.434 590.175 199.727 589.66 200.099 587.187 C 197.654 580.404 192.122 578.863 187.077 574.609 C 184.924 572.793 184.717 571.54 184.379 568.911 C 185.349 565.119 188.444 563.031 191.298 560.61 C 187.028 556.027 181.113 550.552 179.866 544.173 C 179.03 539.893 181.274 538.733 183.003 535.451 C 183.841 533.861 184.277 532.225 183.667 530.472 C 182.195 526.241 172.118 510.44 168.523 508.828 C 161.85 520.568 156.318 530.086 146.417 539.456 C 149.539 545.648 159.259 553.78 158.55 560.798 C 158.006 566.178 152.963 569.288 149.029 572.259 C 153.814 578.5 160.621 586.012 163.199 593.422 C 165.522 600.099 164.713 603.285 161.744 609.596 C 166.487 616.247 171.815 622.725 173.187 631.014 C 173.83 634.899 173.314 639.027 170.945 642.265 C 168.744 645.273 165.273 647.041 161.619 647.522 C 158.761 647.898 154.343 647.473 152.12 645.452 C 150.264 643.764 150.179 642.714 150.224 640.426 C 153.054 637.188 157.061 637.973 160.544 636.019 C 161.916 635.249 162.73 633.383 163.044 631.837 C 165.316 620.634 149.954 616.129 145.482 608.527 C 144.281 606.487 144.574 606.14 145.114 603.952 C 147.563 601.039 151.311 600.115 154.782 598.9 C 148.191 585.525 140.357 579.212 137.14 563.614 L 147.446 557.804 C 138.973 546.377 134.77 534.179 128.792 521.43 C 122.999 536.351 117.521 545.759 106.184 557.162 C 109.31 559.326 112.766 561.256 114.018 564.923 C 110.891 575.851 98.8802 588.155 92.0103 597.162 L 93.3166 596.996 C 98.0224 596.422 101.25 595.819 105.097 598.824 L 105.158 601.189 C 102.073 607.76 93.1152 614.425 87.8716 619.515 C 90.5806 620.385 94.3227 621.355 96.3973 623.38 C 98.4009 625.336 98.3767 626.652 98.5115 629.252 C 96.0968 635.143 89.9564 638.208 84.7676 641.334 C 89.7808 648.962 96.5505 654.925 103.232 661.043 C 96.4283 659.61 90.5329 658.093 84.4529 654.519 C 80.7606 652.348 77.0728 649.442 76.1731 645.011 C 74.9725 639.099 79.2507 634.222 82.4869 629.803 C 82.5995 625.256 80.144 622.571 79.7651 618.582 C 79.3912 614.645 84.6735 609.88 87.1665 607.122 C 84.0453 604.818 81.4518 602.154 78.7721 599.36 C 85.3567 588.246 95.0621 577.969 102.514 567.22 C 100.845 565.783 99.0339 564.334 97.5555 562.702 C 95.6646 560.615 95.6179 559.379 95.6497 556.735 C 99.9564 548.799 107.559 543.32 112.475 535.878 C 116.572 529.676 119.596 516.845 125.988 512.94 C 127.385 512.087 128.924 511.704 130.476 512.285 C 136.102 514.392 140.957 525.656 143.118 530.928 C 151.628 522.174 154.736 510.808 162.536 502.071 C 169.969 493.746 171.376 501.793 178.262 501.46 C 186.48 496.776 198.123 488.823 204.08 481.51 C 209.053 475.404 211.876 468.821 215.633 461.991 C 224.987 444.983 229.918 456.677 237.42 449.823 C 246.458 441.567 254.337 431.034 262.848 422.139 L 380.426 300.051 C 406.86 272.73 433.376 242.953 463.188 219.355 C 471.623 212.678 480.231 207.202 490.61 204.179 z"/>
<path transform="translate(0,0)" fill="rgb(254,254,254)" d="M 1889.42 379.499 C 1891.06 379.341 1892.77 379.799 1894.17 380.683 C 1895.93 381.794 1895.98 382.709 1896.27 384.584 C 1894.65 389.384 1891.78 392.085 1887.44 394.522 C 1884.46 393.979 1882.58 390.311 1880.31 388.145 L 1879.82 387.683 A 69.9283 69.9283 0 0 0 1882.38 386.371 C 1885.33 384.769 1888.4 382.875 1889.42 379.499 z"/>
<path transform="translate(0,0)" fill="rgb(254,254,254)" d="M 358.286 506.391 L 359.401 506.242 C 362.653 512.026 366.618 517.39 370.422 522.819 C 367.641 525.957 365.202 529.442 362.682 532.793 L 362.176 533.395 L 360.211 532.85 C 353.479 526.183 362.57 524.053 362.173 516.867 C 361.964 513.076 358.415 510.409 358.286 506.391 z"/>
<path transform="translate(0,0)" fill="rgb(254,254,254)" d="M 1263.47 560.497 C 1268.92 560.718 1280.54 559.029 1284.93 562.014 C 1286.68 563.209 1286.54 563.867 1286.84 565.83 C 1283.37 567.762 1277.96 567.525 1274.02 567.844 C 1265.71 568.399 1257.92 571.397 1249.46 570.983 C 1253.88 568.507 1261.77 565.331 1263.47 560.497 z"/>
<path transform="translate(0,0)" fill="rgb(254,254,254)" d="M 1353.03 655.489 C 1355.09 655.205 1355.64 654.867 1357.5 655.905 C 1358.02 657.011 1358.43 658.152 1358.67 659.356 C 1359.98 666.099 1360.63 701.001 1357.49 705.514 L 1356.15 705.617 C 1354.04 702.298 1355.55 665.117 1353.03 655.489 z"/>
<path transform="translate(0,0)" fill="rgb(254,254,254)" d="M 198.434 492.82 C 200.335 494.57 201.878 499.038 203.066 501.449 C 197.126 506.674 191.779 512.714 186.315 518.435 C 183.887 514.669 181.674 510.757 179.405 506.894 A 1983.64 1983.64 0 0 0 198.434 492.82 z"/>
<path transform="translate(0,0)" fill="rgb(254,254,254)" d="M 1203.66 733.493 L 1206.03 733.348 C 1206.83 733.828 1207.43 733.879 1207.67 734.827 C 1208.73 738.936 1207.41 743.354 1205.37 746.959 C 1199.56 747.592 1194.76 747.192 1189.89 750.68 C 1189.35 751.835 1188.83 753.234 1187.92 754.145 C 1186.41 755.647 1182.83 755.024 1180.75 755.03 C 1179.85 755.004 1179.02 754.613 1178.18 754.317 C 1179.77 747.21 1197.24 737.89 1203.2 733.812 L 1203.66 733.493 z"/>
<path transform="translate(0,0)" fill="rgb(254,254,254)" d="M 1596.94 400.497 C 1597.55 400.432 1597.89 400.373 1598.54 400.422 C 1601.38 400.637 1604.36 405.94 1605.98 408.2 C 1608.67 411.963 1615.6 421.392 1614.89 425.779 C 1613.6 429.023 1607.98 431.226 1605.08 432.66 C 1605 432.038 1605.01 431.922 1604.76 431.246 C 1603.14 426.944 1599.58 423.244 1595.37 421.498 C 1595.14 421.393 1594.91 421.28 1594.68 421.183 C 1587.69 418.293 1586.93 431.385 1582.1 433.353 L 1580.18 432.472 C 1580.2 427.649 1586.66 422.337 1588.93 418.007 C 1590.29 415.423 1590.43 412.42 1591.82 409.771 C 1593.58 406.43 1596.68 404.52 1596.94 400.497 z"/>
<path transform="translate(0,0)" fill="rgb(254,254,254)" d="M 1243.99 516.494 C 1245.12 516.584 1246.26 516.892 1247.37 517.119 C 1248.23 517.996 1248.95 518.963 1249.37 520.131 C 1251.9 527.242 1253.36 534.926 1255.64 542.161 C 1257.08 546.732 1259.33 550.961 1260.89 555.505 C 1258.49 559.331 1255.42 560.955 1251.16 562.005 C 1249.77 562.682 1247.25 562.507 1245.71 562.278 C 1243.1 561.891 1241.36 561.069 1239.89 558.821 C 1234.95 551.283 1237.07 533.77 1239.92 525.565 C 1240.99 522.502 1243.22 520.144 1243.9 516.958 C 1243.94 516.804 1243.96 516.649 1243.99 516.494 z"/>
<path transform="translate(0,0)" fill="rgb(254,254,254)" d="M 1796.26 338.499 C 1797.69 339.062 1798.24 339.856 1799.05 341.162 C 1803 347.547 1805.26 353.438 1803.27 360.909 C 1801.93 365.917 1797.24 368.353 1793.11 370.822 C 1795.51 373.086 1797.1 375.692 1798.49 378.65 C 1792.36 383.782 1788.86 390.29 1783.34 395.727 C 1781.99 392.683 1783.45 386.546 1782.42 382.604 C 1780.96 377.039 1775.08 373.749 1770.4 370.969 C 1771.42 370.526 1772.42 370.059 1773.4 369.525 C 1781.15 365.29 1793.7 347.012 1796.26 338.499 z"/>
<path transform="translate(0,0)" fill="rgb(254,254,254)" d="M 1154.67 738.487 C 1158.95 738.916 1167.41 745.576 1170.57 748.948 C 1169.16 753.412 1163.59 759.019 1159.72 761.523 C 1146.43 759.684 1131.33 756.724 1117.95 757.499 L 1102.19 760.435 C 1107.82 756.845 1111.68 751.405 1117.94 747.879 C 1128.51 741.92 1137.72 744.825 1148.61 747.861 C 1149.56 747.206 1150.5 746.532 1151.35 745.747 C 1153.41 743.821 1154.53 741.279 1154.67 738.487 z"/>
<path transform="translate(0,0)" fill="rgb(254,254,254)" d="M 398.348 464.407 C 405.56 467.691 406.837 483.837 410.521 490.622 C 412.088 493.509 414.828 496.152 417.108 498.507 C 415.646 499.723 414.091 500.937 412.764 502.3 C 409.705 505.439 411.297 508.275 411.116 512.275 C 411.003 514.763 410.518 516.039 408.74 517.702 L 406.122 517.524 C 401.895 514.513 399.025 506.13 396.715 501.382 C 395.217 499.525 393.252 497.123 390.998 496.227 C 380.228 491.949 378.69 507.58 374.118 509.876 C 375.236 503.002 379.344 495.24 382.577 489.054 C 383.232 488.619 383.856 488.168 384.495 487.712 C 392.834 481.757 391.85 471.848 398.348 464.407 z"/>
<path transform="translate(0,0)" fill="rgb(254,254,254)" d="M 1473.67 410.497 C 1474.98 410.577 1476.12 410.891 1477.39 411.21 C 1483 415.992 1486.4 423.592 1488.16 430.619 C 1489.92 437.625 1490.91 447.13 1486.88 453.55 C 1485.47 455.799 1483.43 456.983 1480.86 457.477 C 1476.8 458.253 1475.8 456.804 1472.7 454.502 C 1472.46 452.392 1471.67 451.279 1470.32 449.679 C 1464.29 442.57 1459.37 444.326 1451.37 443.605 C 1457.71 432.063 1467.41 422.713 1473.44 410.951 C 1473.52 410.801 1473.59 410.648 1473.67 410.497 z"/>
<path transform="translate(0,0)" fill="rgb(254,254,254)" d="M 470.596 486.761 C 482.549 492.907 491.404 509.503 498.174 520.527 C 495.606 522.548 492.865 524.679 491.298 527.62 C 487.707 534.358 500.208 538.064 502.407 546.209 C 501.644 549.123 499.519 549.695 497.06 551.278 C 494.347 559.021 511.123 563.669 513.006 571.459 C 511.121 573.107 510.102 572.62 507.755 572.509 C 504.663 572.297 490.342 572.786 488.626 570.818 C 486.345 568.203 487.62 561.351 484.147 558.835 C 481.826 557.153 478.922 556.536 476.526 554.6 C 475.199 548.439 481.132 547.139 482.247 541.858 C 480.334 535.004 472.783 529.194 467.781 524.449 C 469.103 523.54 470.428 522.621 471.664 521.596 C 474.038 519.627 475.855 517.143 475.912 513.923 C 476.016 507.986 468.267 501.811 464.446 497.888 C 468.547 494.251 469.908 492.24 470.596 486.761 z"/>
<path transform="translate(0,0)" fill="rgb(254,254,254)" d="M 1727.19 339.497 C 1729.27 339.382 1730.32 339.19 1732.08 340.536 C 1736.4 343.823 1751.31 372.191 1752.31 377.933 C 1751.46 378.52 1751.79 378.41 1750.89 378.64 C 1747.63 379.478 1743.11 379.982 1741.08 382.917 C 1741.07 389.752 1747.02 390.215 1750.08 395.359 C 1750.16 395.501 1750.24 395.648 1750.32 395.793 C 1750.97 403.782 1737.69 410.584 1736.75 418.571 C 1738.37 421.262 1741.09 421.359 1743.08 423.723 C 1741.66 426.363 1740.24 426.918 1737.74 428.499 L 1736.85 430.537 L 1735.18 431.12 C 1733.91 430.05 1732.84 428.96 1731.85 427.623 C 1727.27 421.402 1711.39 401.907 1712.45 394.737 C 1714.25 394.339 1715.35 394.166 1716.6 392.744 C 1716.75 384.583 1710.76 389.449 1707.35 384.48 C 1711.16 380.966 1715.2 377.455 1718.68 373.62 C 1723.76 368.043 1727.79 347.506 1727.26 340.166 C 1727.24 339.942 1727.21 339.72 1727.19 339.497 z"/>
<path transform="translate(0,0)" fill="rgb(254,254,254)" d="M 1659.85 312.495 C 1660.39 312.537 1660.66 312.534 1661.21 312.704 C 1664.02 313.571 1676.08 340.273 1677.7 344.644 C 1677.03 346.575 1671.47 348.59 1669.37 350.23 C 1666.71 357.048 1671.47 356.288 1673.12 361.397 C 1673.21 361.683 1673.29 361.974 1673.37 362.262 C 1672.29 381.187 1649.38 394.38 1647.86 409.238 C 1647.45 413.3 1653.11 414.881 1655.51 417.633 C 1654.94 419.901 1654.37 420.912 1652.57 422.412 C 1649.39 422.706 1649.44 422.484 1646.89 420.503 C 1647.74 414.694 1639.09 410.574 1639.46 406.655 C 1639.73 403.772 1642.18 403.467 1641.57 399.751 C 1638.12 397.514 1635.2 398.119 1631.19 397.795 L 1630.31 395.959 C 1631.36 384.3 1645.75 376.284 1649.49 365.112 C 1650.51 362.06 1650.7 359.494 1649.19 356.543 C 1646.36 353.831 1643.17 353.857 1639.47 353.828 L 1638.83 353.829 C 1639.42 342.615 1660.7 333.1 1659.85 312.495 z"/>
<path transform="translate(0,0)" fill="rgb(254,254,254)" d="M 1202.54 782.485 C 1202.98 782.412 1203.43 782.327 1203.87 782.281 C 1207.72 781.878 1210.17 785.182 1213.07 787.387 C 1217.65 790.879 1222.97 794.794 1228.52 796.48 C 1246.49 801.944 1297.43 800.006 1316.32 798.005 C 1326.09 796.971 1335.72 794.57 1345.46 793.35 C 1348.03 793.028 1350.38 792.745 1352.45 794.363 L 1352.38 796.458 C 1350.93 798.885 1349.46 800.367 1347.33 802.165 C 1346.89 803.748 1345.99 804.64 1344.74 805.683 C 1341.13 808.69 1334.98 809.481 1330.49 810.065 C 1315.62 812.002 1299.99 811.509 1284.97 811.886 C 1262.49 812.451 1239.28 813.895 1216.88 812.218 C 1216.68 811.659 1216.48 811.296 1216.05 810.884 C 1214.69 809.595 1213.31 808.353 1212.07 806.944 C 1205.64 799.673 1201.96 792.403 1202.54 782.485 z"/>
<path transform="translate(0,0)" fill="rgb(254,254,254)" d="M 1851.45 293.499 L 1853.24 293.873 C 1855.45 296.009 1869.45 326.935 1871.06 331.675 C 1869.94 334.05 1864.95 331.776 1862.03 333.131 C 1856.16 345.969 1880.91 359.994 1880.09 372.849 C 1880.07 373.034 1880.07 373.224 1880.03 373.406 C 1879.22 376.986 1876.3 378.775 1873.47 380.674 C 1873.33 378.359 1871.06 374.868 1869.61 373.077 C 1867.88 370.942 1865.21 370.372 1862.58 370.415 C 1859.4 370.468 1856.97 373.434 1854.86 375.528 C 1854.86 375.724 1854.89 375.922 1854.87 376.117 C 1854.63 378.035 1848.73 387.845 1847.07 389.14 L 1845.51 388.415 C 1846.98 385.885 1848.54 383.629 1847.99 380.579 C 1846.57 372.81 1834.87 357.493 1828.33 352.859 C 1832.5 350.65 1839.75 343.047 1841.31 338.598 C 1842.22 336.01 1841.97 334.269 1840.84 331.829 C 1838.34 328.916 1833.37 328.522 1829.75 327.76 C 1841.55 318.8 1846.47 306.97 1851.45 293.499 z"/>
<path transform="translate(0,0)" fill="rgb(254,254,254)" d="M 1735 277.498 C 1743.77 279.517 1748.27 305.685 1755.15 312.573 C 1755.31 312.733 1755.47 312.884 1755.64 313.04 L 1754.65 313.741 L 1755.82 315.581 C 1755.64 316.246 1755.86 316.116 1755.22 316.03 C 1751.12 315.486 1746.93 314.508 1743.49 317.111 C 1743.33 317.697 1743.24 317.877 1743.21 318.439 C 1742.81 325.304 1757.19 335.355 1761.69 340.295 A 117.47 117.47 0 0 0 1761.39 342.366 C 1760.39 349.828 1765.35 353.054 1769.64 358.687 L 1769.69 359.258 C 1766.02 363.751 1764.73 369.926 1760.55 373.846 C 1759.73 365.684 1744.25 340.36 1737.48 335.004 C 1733.64 331.965 1730.07 331.781 1725.38 332.358 C 1718.49 340.849 1717.85 352.006 1713.91 361.879 C 1710.56 370.284 1706.48 374.651 1698.23 378.264 C 1697.73 375.586 1695.31 373.04 1693.39 371.225 C 1693.51 371.133 1693.63 371.044 1693.74 370.949 C 1693.93 370.791 1694.11 370.624 1694.3 370.468 C 1698.25 367.194 1706.85 356.387 1707.43 351.181 C 1707.65 349.196 1705.51 347.528 1704.26 346.108 C 1706.31 341.471 1712.74 336.295 1716.13 332.232 C 1719.4 328.323 1723.01 322.222 1722.5 316.978 C 1720.57 314.03 1717.11 312.819 1714.05 311.338 C 1723.09 303.9 1730.98 288.545 1735 277.498 z"/>
<path transform="translate(0,0)" fill="rgb(254,254,254)" d="M 803.26 370.226 C 819.84 368.445 828.584 375.499 841.249 384.602 C 834.069 397.05 843.721 408.071 839.103 419.597 C 838.037 420.627 837.317 421.691 835.827 422.006 C 829.026 423.446 817.123 416.592 811.457 412.918 C 806.003 409.442 799.524 404.721 792.858 404.652 C 786.546 404.587 783.319 407.929 779.11 412.091 C 775.252 406.048 770.48 401.513 764.973 397.045 C 777.116 387.268 788.675 376.153 803.26 370.226 z"/>
<path transform="translate(0,0)" fill="rgb(254,254,254)" d="M 1679.81 371.496 L 1682.72 371.819 C 1687.74 375.487 1700.88 398.944 1702.24 404.652 C 1699.98 407.528 1695.05 407.879 1691.81 409.771 C 1689.37 416.132 1696.52 417.935 1697.96 423.455 C 1697.59 434.462 1681.05 442.056 1681.17 453.475 C 1681.23 458.978 1686.42 459.828 1689.22 463.215 C 1692.22 466.851 1674.13 476.603 1672.81 488.358 C 1672.26 493.291 1675.29 497.49 1677.63 501.639 L 1676.58 503.255 C 1674.02 503.133 1672.51 501.124 1670.57 499.497 C 1669.96 497.896 1668.19 496.796 1666.9 495.691 C 1668.72 492.233 1671.75 487.531 1671.27 483.438 C 1670.57 477.576 1661.24 469.945 1656.62 466.589 C 1658.1 465.992 1659.42 465.197 1660.77 464.365 C 1663.78 462.52 1667.21 460.753 1668.08 457.076 C 1667.28 450.564 1654.99 443.904 1650.14 439.452 C 1655.25 436.323 1659.52 429.558 1662.92 424.672 C 1665.44 421.041 1669.16 415.884 1668.33 411.243 C 1664.97 408.615 1655.47 409.825 1650.99 409.861 C 1657.76 406.544 1664.45 400.32 1669.45 394.703 C 1674.98 388.487 1680.31 380.148 1679.81 371.496 z"/>
<path transform="translate(0,0)" fill="rgb(254,254,254)" d="M 441.608 454.384 C 445.323 455.656 457.713 481.768 461.412 487.131 C 458.673 487.854 456.177 488.661 453.588 489.821 C 452.619 491.118 451.595 492.005 451.489 493.672 C 451.151 498.966 461.105 508.094 464.545 512.376 C 460.881 514.635 457.034 516.561 455.585 520.852 C 455.481 528.467 467.845 536.591 472.193 543.017 C 469.416 543.874 466.201 544.677 463.636 546.043 C 461.573 547.142 460.438 548.716 459.777 550.936 C 460.81 558.607 473.123 561.562 477.675 567.296 L 477.24 568.652 C 472.779 570.835 467.653 570.06 462.837 569.809 C 452.299 568.96 432.293 569.968 423.497 567.112 C 424.171 563.032 424.241 560.23 422.625 556.396 L 422.38 555.824 C 420.201 550.673 414.743 546.618 410.702 542.871 A 181.938 181.938 0 0 0 414.519 540.97 C 418.067 539.14 419.457 538.09 420.655 534.265 C 420.032 530.402 417.053 527.498 414.612 524.6 C 420.472 516.983 424.728 507.689 429.595 499.381 C 427.284 496.986 423.774 493.812 422.835 490.508 C 420.955 483.891 430.852 480.06 433.931 474.425 C 437.379 468.112 437.926 460.795 441.608 454.384 z"/>
<path transform="translate(0,0)" fill="rgb(254,254,254)" d="M 291.277 452.433 C 297.152 457.046 302.65 473.151 309.693 481.146 C 306.69 483.322 302.997 485.416 302.568 489.465 C 301.832 496.401 310.822 505.554 314.738 510.802 C 311.479 514.11 305.364 519.753 305.567 524.608 C 305.771 529.472 310.878 532.683 314.343 535.46 C 310.723 542.825 306.344 547.473 301.578 553.887 C 293.826 564.316 302.449 562.454 303.68 570.892 C 301.797 572.367 300.17 573.897 298.514 575.618 C 298.115 578.041 297.792 579.861 296.361 581.942 C 292.564 583.5 284.82 580.129 280.79 578.952 C 273.476 577.609 264.796 575.284 258.85 570.588 C 256.951 569.088 256.609 568.028 256.283 565.787 C 257.428 562.05 260.678 560.096 263.234 557.372 C 265.088 555.395 265.463 554.608 265.378 552.024 C 262.725 548.334 257.323 546.222 253.374 544.106 C 257.399 539.737 262.26 536.276 266.289 531.986 C 268.27 529.877 268.367 528.147 268.272 525.441 C 266.92 522.268 263.28 520.533 260.478 518.736 C 263.974 511.502 268.74 507.464 273.912 501.575 C 276.19 498.982 277.542 496.48 277.293 492.946 C 276.034 489.445 272.321 487.097 269.499 484.832 C 286.308 470.887 281.052 468.556 290.76 453.233 L 291.277 452.433 z"/>
<path transform="translate(0,0)" fill="rgb(254,254,254)" d="M 490.744 212.145 A 95.082 95.082 0 0 1 493.495 211.956 C 497.993 211.702 502.08 211.733 506.073 214.109 C 520.585 222.747 536.199 243.517 548.917 255.785 C 558.613 265.137 569.309 273.386 579.354 282.346 C 580.801 283.636 585.264 287.022 585.368 288.773 C 584.954 288.898 584.77 288.965 584.31 289.039 C 577.032 290.212 566.755 280.195 561.212 276.222 C 555.128 271.861 548.059 268.516 540.402 269.871 C 529.949 271.721 523.363 280.446 517.796 288.678 C 516.564 290.832 515.324 292.993 513.983 295.081 C 512.202 297.853 509.991 300.24 506.576 300.811 C 490.944 303.427 484.634 262.68 473.117 255.311 C 463.487 249.15 447.633 268.509 437.279 269.551 C 434.667 269.814 434.093 269.18 432.225 267.602 C 431.002 264.66 430.704 262.608 431.941 259.538 C 438.131 244.158 475.041 218.768 490.744 212.145 z"/>
<path transform="translate(0,0)" fill="rgb(254,254,254)" d="M 1225.36 525.494 L 1228.37 526.16 C 1231.11 532.816 1227.74 543.524 1229.46 551.342 C 1231.87 562.248 1238.19 565.917 1246.99 571.564 L 1246.96 573.115 C 1244.21 575.436 1241.03 576.611 1237.78 578.043 C 1225.95 583.249 1215.51 589.131 1205.49 597.412 C 1201.5 600.713 1198.35 604.773 1194.03 607.689 C 1180.68 601.211 1153.2 595.161 1138.21 592.429 C 1125.26 588.371 1111.51 585.939 1098.17 583.495 C 1104.98 581.367 1111.91 576.863 1118.3 573.586 C 1131.8 566.657 1145.26 559.601 1159.07 553.301 C 1170.19 548.227 1181.32 543.09 1192.71 538.65 C 1203.27 534.536 1215.66 531.228 1225.36 525.494 z"/>
<path transform="translate(0,0)" fill="rgb(254,254,254)" d="M 1194.04 247.498 C 1198.33 246.877 1202.31 246.666 1206.48 248.034 C 1219.66 252.354 1240.92 284.142 1247.5 296.986 C 1245.37 301.581 1244.09 306.745 1240.07 310.022 C 1232.62 312.143 1228.74 306.649 1222.41 303.821 C 1219.45 302.499 1215.66 302.11 1212.46 301.601 C 1208.61 304.15 1203.41 304.552 1199.56 307.576 C 1192.41 313.185 1184.92 328.004 1176.12 329.908 C 1172.94 329.797 1170.54 326.999 1168.28 324.994 C 1168.77 320.728 1163.9 310.608 1162.28 306.43 C 1151.77 279.23 1128.51 306.367 1111.91 298.252 C 1110.04 297.334 1109.2 295.677 1108.6 293.745 C 1108.06 291.974 1107.73 287.726 1108.74 286.179 C 1114.67 277.036 1181.17 250.47 1194.04 247.498 z"/>
<path transform="translate(0,0)" fill="rgb(254,254,254)" d="M 1119.55 694.461 L 1137.62 693.552 C 1138.48 694.3 1139.29 695.12 1139.88 696.101 C 1143.37 701.872 1153.23 724.453 1152.1 730.024 C 1152.1 730.209 1152.11 730.394 1152.11 730.579 C 1152.02 734.675 1149.11 738.628 1146.3 741.416 C 1138.41 738.701 1130.06 737.852 1121.93 739.92 C 1107.84 743.507 1099.37 753.616 1092.16 765.447 C 1083.92 770.544 1063.68 769.579 1053.82 770.152 C 1050.6 770.878 1046.84 770.77 1043.52 770.964 C 1045.08 764.329 1024 710.903 1020.07 700.01 C 1053.14 698.325 1086.57 697.35 1119.55 694.461 z"/>
<path transform="translate(0,0)" fill="rgb(254,254,254)" d="M 338.42 489.39 C 343.357 491.724 350.883 512.483 354.95 518.362 C 351.802 520.776 348.582 522.698 348.24 527.015 C 347.558 535.63 362.601 545.503 367.93 551.911 C 363.844 554.13 359.054 555.997 356.892 560.339 C 356.981 569.18 370.571 573.485 375.214 580.778 C 376.45 582.72 376.326 583.138 375.814 585.263 C 372.123 588.152 366.718 587.77 362.359 589.135 C 359.981 589.879 359.227 590.218 358.088 592.385 C 358.341 593.437 358.61 594.134 359.289 595.001 C 361.371 597.662 364.11 599.153 367.439 599.61 C 372.086 600.248 377.337 598.804 381.045 595.933 C 383.531 594.008 385.365 591.2 385.752 588.045 C 386.908 578.603 375.338 570.334 370.053 563.529 C 373.569 560.335 378.011 556.568 378.163 551.409 C 378.328 545.814 373.022 541.414 369.419 537.785 C 372.119 534.678 375.621 531.33 377.54 527.694 C 380.936 521.259 382.116 508.063 388.459 504.231 C 397.056 513.735 397.219 522.613 409.116 532.881 C 406.512 535.218 403.875 537.126 403.117 540.71 C 403.301 547.918 412.228 554.12 416.714 559.653 C 412.933 561.61 409.361 563.996 405.76 566.263 C 412.123 573.578 428.135 581.891 430.694 590.924 C 428.317 594.926 422.317 593.125 419.387 597.833 C 419.616 600.455 419.977 602.046 421.461 604.24 C 423.01 605.21 423.779 605.993 425.659 605.96 C 428.741 605.906 431.323 604.284 433.365 602.052 C 436.276 598.871 437.499 594.971 437.298 590.695 C 436.995 584.236 432.176 580.628 427.767 576.618 A 1419 1419 0 0 1 451.753 577.865 C 488.457 579.677 526.201 582.144 562.554 587.55 C 549.884 594.255 535.998 599.454 522.966 605.524 A 1015.06 1015.06 0 0 0 460.613 637.157 C 444.094 627.558 422.137 625.756 403.91 620.03 C 385.227 614.161 366.935 606.901 348.551 600.166 C 338.202 596.374 327.542 593.232 317.301 589.202 C 313.015 587.516 309.261 586.112 307.378 581.741 C 308.649 577.935 313.18 576.763 315.764 574 C 317.431 572.219 317.354 571.383 317.298 569.124 C 315.381 565.812 311.513 564.282 308.239 562.572 C 313.961 556.592 322.308 546.146 325.502 538.442 C 329.855 527.939 319.301 529.875 316.666 523.616 C 316.702 523.48 316.731 523.341 316.775 523.208 C 318.19 518.941 326.706 516.071 329.589 512.029 C 333.9 505.985 334.797 496.323 338.42 489.39 z"/>
<path transform="translate(0,0)" fill="rgb(254,254,254)" d="M 1640.4 213.499 C 1652.31 211.904 1662.64 213.638 1672.88 220.148 C 1684.8 227.733 1722.64 261.586 1725.4 274.165 C 1726.22 286.021 1704.75 304.177 1703.82 311.318 C 1703.11 316.773 1707.61 317.458 1710.11 321.024 C 1710.3 321.297 1710.48 321.578 1710.67 321.855 C 1707.39 331.162 1697.46 335.355 1693.4 342.693 C 1690.94 347.156 1696.17 351.194 1694.28 355.891 C 1693.64 357.465 1691.45 360.022 1689.83 360.605 C 1688.63 361.041 1687.27 360.457 1686.13 359.957 C 1683.96 359.012 1682.1 357.347 1681.29 355.196 C 1683.11 354.425 1685.28 353.672 1686.78 352.358 C 1688.56 350.796 1689.74 349.191 1689.69 346.672 C 1689.52 338.265 1672.47 308.894 1665.92 303.049 C 1663.45 300.848 1660.98 299.168 1657.55 299.339 C 1653.22 301.642 1652.16 309.413 1650.34 313.753 C 1647.9 319.563 1645.14 325.341 1641.71 330.632 C 1636.87 338.081 1628.54 346.275 1626.01 354.729 C 1625.62 356.026 1625.77 356.457 1626.48 357.642 C 1628.63 361.27 1634.52 361.836 1638.28 362.853 C 1634.35 369.851 1627.31 382.862 1620.94 387.499 C 1619.25 384.651 1614.95 381.684 1612.56 379.099 L 1612.94 377.813 C 1614.87 377.483 1616.76 377.081 1618.58 376.344 C 1621.03 375.348 1623.12 373.566 1624 370.993 C 1625.1 367.775 1624.09 364.675 1622.68 361.754 C 1619.06 354.269 1601.3 324.947 1596.05 320.197 C 1593.93 318.279 1590.82 317.335 1588.16 316.408 C 1584.24 308.049 1578.3 300.728 1574.36 292.393 C 1572.3 288.034 1572.69 282.164 1569.81 278.396 L 1568.15 278.406 L 1566.69 280.33 C 1565.39 292.503 1578.56 305.753 1582.79 316.83 L 1583.07 317.596 C 1582.93 318.402 1582.84 318.946 1582.34 319.622 C 1575.96 328.208 1576.97 340.092 1570.98 348.684 C 1568.56 352.145 1564.46 355.046 1561.4 357.981 C 1558.76 360.518 1555.76 363.787 1555.77 367.683 C 1555.78 374.138 1560.21 372.582 1563.59 376.12 C 1563.8 376.34 1564 376.571 1564.2 376.797 C 1562.3 381.377 1554.48 387.957 1550.35 390.864 C 1550.74 384.423 1544.35 373.757 1540.34 369.077 C 1537.55 365.803 1533.47 362.214 1528.92 362.081 C 1518.56 361.779 1517.77 377.491 1511.19 383.006 C 1510.99 383.173 1510.79 383.335 1510.59 383.499 C 1508.85 393.71 1494.2 397.307 1493.81 406.97 C 1493.61 412.031 1498.73 413.179 1501.74 416.111 C 1500.25 419.124 1495.73 420.952 1492.83 422.489 C 1492.14 418.219 1488.86 412.165 1486.3 408.65 C 1484.36 405.99 1481.63 404.012 1478.32 403.575 C 1474.18 403.028 1470.32 404.928 1467.18 407.484 C 1460.96 412.555 1441.93 439.206 1441.08 446.828 C 1442.97 449.513 1446.34 450.298 1449.31 451.665 C 1448.93 453.451 1448.53 455.284 1447.89 456.997 C 1445.12 464.438 1434.31 471.194 1427.37 474.337 C 1384.81 471.377 1343.01 478.818 1300.93 483.357 C 1298.78 480.108 1293.96 478.498 1290.51 476.966 C 1299.84 472.091 1311.25 458.444 1319.28 451.115 C 1332.19 439.321 1345.47 427.881 1358.6 416.325 C 1390.11 388.596 1421.01 359.486 1453.7 333.207 C 1469.36 320.623 1486.42 310.667 1502.86 299.255 C 1540.81 272.908 1598.91 229.449 1640.4 213.499 z"/>
<path transform="translate(0,0)" fill="rgb(0,0,0)" d="M 1496.7 373.497 C 1498.29 373.331 1499.69 373.469 1501.27 373.666 L 1502.26 374.999 C 1502.18 375.29 1502.11 375.584 1502.01 375.871 C 1500.95 379.039 1495.57 382.044 1492.72 383.503 L 1490.73 383.422 L 1489.9 382.302 C 1490.75 378.75 1494.46 376.837 1496.47 373.86 C 1496.55 373.741 1496.62 373.618 1496.7 373.497 z"/>
<path transform="translate(0,0)" fill="rgb(0,0,0)" d="M 1366.69 448.495 C 1367.31 448.378 1367.93 448.246 1368.56 448.217 C 1370.57 448.125 1371.17 448.005 1372.61 449.411 C 1372.55 449.726 1372.52 450.045 1372.44 450.357 C 1371.69 453.555 1366.85 456.733 1364.3 458.505 L 1361.57 458.921 L 1360.41 458.053 C 1360.95 454.584 1364.83 452.073 1366.49 448.902 C 1366.56 448.768 1366.62 448.631 1366.69 448.495 z"/>
<path transform="translate(0,0)" fill="rgb(0,0,0)" d="M 1407.22 437.497 C 1408.75 437.255 1410.14 437.371 1411.68 437.495 L 1412.95 439.008 C 1412.92 439.157 1412.89 439.308 1412.85 439.455 C 1411.67 443.436 1406.78 446.596 1403.32 448.503 C 1402.77 448.734 1401.72 448.698 1401.12 448.744 L 1400.42 447.057 C 1401.98 443.424 1404.99 441.321 1406.95 437.971 C 1407.04 437.815 1407.13 437.655 1407.22 437.497 z"/>
<path transform="translate(0,0)" fill="rgb(0,0,0)" d="M 1329.91 458.495 C 1331.77 458.091 1333.14 458.108 1335.02 458.349 L 1336.05 459.945 C 1334.76 464.183 1329.93 467.594 1326.43 470.017 L 1325.28 470.454 L 1323.2 468.95 C 1324.08 464.681 1328.07 462.906 1329.75 458.92 C 1329.81 458.78 1329.86 458.637 1329.91 458.495 z"/>
<path transform="translate(0,0)" fill="rgb(0,0,0)" d="M 1438.59 406.496 C 1440.13 406.356 1441.48 406.511 1443.01 406.74 L 1443.95 408.402 C 1442.49 412.828 1437.37 416.378 1433.41 418.504 L 1431.74 418.537 L 1430.67 417.448 C 1431.53 412.948 1436.35 410.847 1438.4 406.894 C 1438.46 406.763 1438.52 406.629 1438.59 406.496 z"/>
<path transform="translate(0,0)" fill="rgb(0,0,0)" d="M 1469.9 358.497 C 1472.52 358.282 1473.22 358.131 1475.55 359.269 L 1475.74 361.311 C 1473.04 366.253 1467.6 370.772 1462.74 373.503 C 1461.61 373.77 1460.69 373.494 1459.57 373.291 C 1459.87 366.853 1467.62 364.125 1469.9 358.497 z"/>
<path transform="translate(0,0)" fill="rgb(0,0,0)" d="M 1421.72 385.495 C 1423.65 385.459 1424.07 385.433 1425.83 386.386 L 1425.94 388.504 C 1421.47 396.103 1400.39 412.316 1392.36 416.504 L 1390.35 416.659 L 1389.65 415.055 C 1393.13 406.476 1414.67 394.901 1421.72 385.495 z"/>
<path transform="translate(0,0)" fill="rgb(254,254,254)" d="M 1098.9 290.484 C 1104.26 290.986 1103.65 296.94 1107.11 300.458 C 1120.91 314.488 1134.24 298.075 1146.93 298.964 C 1158.14 299.748 1160.35 324.658 1167.34 332.107 C 1169.63 334.551 1173.07 336.373 1176.5 336.281 C 1185.19 336.046 1194.85 320.39 1200.8 314.613 C 1217.35 298.559 1223.9 317.425 1240.54 316.814 C 1242.88 316.728 1245.56 315.905 1247.13 314.059 C 1249.17 311.669 1250.29 304.853 1249.97 301.786 C 1264.57 315.578 1276.3 334.711 1288.29 350.815 C 1300.75 367.552 1345.06 401.996 1350.25 412.261 C 1348.73 415.71 1286.51 471.656 1282.07 473.885 C 1278.28 470.757 1269.85 467.328 1265.05 466.371 C 1257.53 464.871 1249.97 466.163 1243.65 470.611 C 1236.58 475.584 1230.51 486.779 1232.24 495.57 C 1233.05 499.701 1236.28 504.583 1235.41 508.737 C 1235.37 508.902 1235.32 509.063 1235.28 509.225 C 1233.88 511.021 1176.77 534.698 1170.12 536.937 C 1166.34 541.091 1149.77 547.743 1144.24 550.508 C 1125.47 559.897 1107.74 570.571 1089.25 580.318 C 1080.47 576.045 1066.02 574.839 1056.2 572.931 C 1056.17 572.738 1056.16 572.54 1056.11 572.352 C 1055.02 568.695 1048.11 562.616 1045.35 559.491 C 1034.06 546.729 1022.83 533.347 1010.18 521.893 C 992.293 505.688 972.606 491.625 955.191 474.77 C 945.656 465.543 938.605 454.103 928.586 445.26 C 920.073 437.746 909.903 431.649 900.631 425.08 C 923.167 409.523 948.115 397.936 971.424 383.609 C 1006.07 362.315 1038.31 337.606 1070.04 312.249 C 1078.96 305.123 1091.31 298.684 1098.9 290.484 z"/>
<path transform="translate(0,0)" fill="rgb(0,0,0)" d="M 954.446 425.649 C 956.63 427.01 956.894 427.121 957.854 429.482 C 957.26 432.922 954.066 435.58 951.743 438.03 C 950.08 437.305 949.63 436.859 948.647 435.334 C 948.727 431.761 952.279 428.351 954.446 425.649 z"/>
<path transform="translate(0,0)" fill="rgb(0,0,0)" d="M 985.817 390.507 C 988.392 391.044 988.764 390.959 990.445 392.927 C 990.106 396.167 986.609 399.094 984.44 401.398 C 982.839 401.661 981.903 401.203 980.473 400.594 L 979.965 398.981 C 980.968 395.468 983.415 393.141 985.817 390.507 z"/>
<path transform="translate(0,0)" fill="rgb(0,0,0)" d="M 1239.64 359.491 L 1242.29 360.357 C 1244.75 363.928 1245.8 366.718 1245.47 371.196 L 1243.23 373.065 C 1242.92 372.94 1242.6 372.837 1242.29 372.689 C 1240.36 371.745 1238.95 368.146 1238.49 366.154 C 1237.82 363.275 1238.19 361.99 1239.64 359.491 z"/>
<path transform="translate(0,0)" fill="rgb(0,0,0)" d="M 981.007 449.487 C 982.747 450.49 983.462 451.181 984.26 453.033 C 983.925 457.026 980.256 460.95 977.965 464.13 C 976.256 463.386 975.591 462.844 974.548 461.305 C 974.7 456.796 978.369 452.923 981.007 449.487 z"/>
<path transform="translate(0,0)" fill="rgb(0,0,0)" d="M 1157.62 475.467 L 1161.43 475.29 C 1162.96 476.623 1163.83 478.11 1164.1 480.166 C 1164.6 483.927 1163.7 486.66 1161.49 489.524 L 1160.21 489.691 C 1156.89 486.448 1157.71 479.984 1157.62 475.467 z"/>
<path transform="translate(0,0)" fill="rgb(0,0,0)" d="M 1075.61 339.465 C 1077.05 339.352 1078.27 339.224 1079.61 339.872 C 1080.86 340.481 1080.63 340.713 1081.06 341.948 C 1079.72 346.18 1074.94 349.319 1071.27 351.45 L 1068.72 351.365 C 1068.96 346.195 1072.78 344.08 1075.32 339.956 C 1075.42 339.794 1075.51 339.629 1075.61 339.465 z"/>
<path transform="translate(0,0)" fill="rgb(0,0,0)" d="M 1091.54 382.473 C 1093.33 382.41 1094.21 382.571 1095.86 383.272 C 1096.13 384.075 1096.66 385.004 1096.42 385.83 C 1095.28 389.913 1091.19 394.527 1087.47 396.512 L 1086.27 396.429 L 1085.01 394.939 C 1085.27 390.844 1089.72 386.8 1091.35 382.944 C 1091.42 382.788 1091.48 382.63 1091.54 382.473 z"/>
<path transform="translate(0,0)" fill="rgb(0,0,0)" d="M 1070.8 444.462 C 1072.54 444.335 1073.37 444.453 1074.99 445.11 L 1075.58 446.853 C 1074.7 450.912 1070.31 456.309 1066.84 458.549 L 1064.74 458.515 L 1063.8 456.955 C 1064.4 452.855 1068.56 448.713 1070.52 444.996 C 1070.62 444.819 1070.71 444.64 1070.8 444.462 z"/>
<path transform="translate(0,0)" fill="rgb(0,0,0)" d="M 1284.06 399.489 C 1285.57 399.267 1286.76 399.415 1288.25 399.654 C 1291.92 403.073 1294.53 406.254 1295.47 411.296 L 1293.86 413.518 L 1291.78 413.446 C 1287.85 409.523 1285.36 404.868 1284.06 399.489 z"/>
<path transform="translate(0,0)" fill="rgb(0,0,0)" d="M 1245.75 419.484 C 1247.64 419.428 1248.98 419.07 1250.41 420.581 C 1253.08 423.4 1254.49 428.125 1253.94 431.937 C 1253.69 433.693 1252.52 434.02 1251.15 435.02 C 1250.33 434.423 1249.97 434.005 1249.44 433.112 C 1247.34 429.585 1244.66 423.558 1245.75 419.484 z"/>
<path transform="translate(0,0)" fill="rgb(0,0,0)" d="M 1022.4 417.63 C 1024.76 419.253 1025.1 419.162 1025.7 421.91 C 1024.51 426.69 1020.81 430.591 1017.83 434.402 C 1016.6 434.156 1015.67 433.432 1014.65 432.754 L 1014.25 430.603 C 1015.59 425.863 1019.51 421.562 1022.4 417.63 z"/>
<path transform="translate(0,0)" fill="rgb(0,0,0)" d="M 1014.6 473.244 C 1015.89 473.368 1017.05 474.012 1018.22 474.535 L 1018.87 476.887 C 1017.78 481.621 1013.71 486.244 1010.96 490.21 C 1009.01 489.68 1008.7 489.386 1007.27 487.937 C 1006.85 483.477 1012.18 476.982 1014.6 473.244 z"/>
<path transform="translate(0,0)" fill="rgb(0,0,0)" d="M 1186.57 399.471 C 1188.78 399.076 1189.51 398.781 1191.66 399.566 C 1193.64 401.605 1195.35 403.566 1196.28 406.308 C 1197.49 409.887 1197.79 411.865 1196.21 415.218 L 1195.34 415.674 L 1193.53 414.983 C 1190.21 410.571 1188.54 404.601 1186.57 399.471 z"/>
<path transform="translate(0,0)" fill="rgb(0,0,0)" d="M 1140.78 403.478 C 1142.54 403.324 1143.33 403.385 1144.96 404.072 C 1145.77 405.69 1145.91 407.059 1145.65 408.834 C 1145 413.247 1142.22 418.903 1138.77 421.523 L 1137.83 421.523 L 1136.43 419.994 C 1136.3 414.793 1139.45 408.564 1140.78 403.478 z"/>
<path transform="translate(0,0)" fill="rgb(0,0,0)" d="M 1200.91 466.478 C 1202.57 466.169 1203.59 466.109 1205.24 466.548 C 1207.29 468.842 1209.12 471.455 1210.24 474.345 C 1211.6 477.839 1212.74 480.116 1211.14 483.512 L 1210.3 484.435 L 1208.45 483.932 C 1204.84 479.038 1202.3 472.358 1200.91 466.478 z"/>
<path transform="translate(0,0)" fill="rgb(0,0,0)" d="M 1060.89 493.457 C 1063.38 493.077 1064.15 492.781 1066.43 493.758 L 1066.8 495.789 C 1064.93 500.609 1059.68 506.364 1055.32 509.088 C 1054.62 509.424 1053.56 509.292 1052.77 509.307 C 1052.07 502.045 1059.29 499.768 1060.89 493.457 z"/>
<path transform="translate(0,0)" fill="rgb(0,0,0)" d="M 1107.71 497.476 C 1110.05 497.139 1111.04 496.652 1113.22 497.886 L 1113.48 500.171 C 1111.61 505.336 1106.42 512.269 1102 515.523 C 1101.15 515.735 1100.11 515.637 1099.24 515.654 L 1098.34 514 C 1100.09 507.948 1105.38 503.793 1107.54 497.965 C 1107.6 497.803 1107.65 497.639 1107.71 497.476 z"/>
<path transform="translate(0,0)" fill="rgb(254,254,254)" d="M 462.422 261.964 C 464.494 261.816 466.355 262.004 468.406 262.308 C 474.925 266.659 480.963 288.278 486.441 296.588 C 490.583 302.871 496.057 309.062 503.805 310.529 C 518.574 313.325 525.399 287.464 536.175 280.376 C 550.515 270.943 565.42 293.918 583.149 297.619 C 588.746 298.788 590.113 297.547 594.626 294.625 C 613.058 307.463 629.727 323.371 647.248 337.449 C 669.44 355.28 693.336 371.463 713.282 391.908 C 727.24 406.216 739.444 422.41 753.071 437.081 C 774.303 459.94 797.399 481.546 819.957 503.12 C 832.41 515.03 845.025 528.573 859.494 537.953 C 852.073 524.626 838.058 511.056 827.663 499.885 C 799.609 469.737 769.448 441.699 742.495 410.536 C 747.284 407.144 753.511 401.45 759.766 402.098 C 767.237 402.871 774.555 414.834 779.287 420.277 C 782.38 416.646 785.443 412.122 790.274 410.886 C 799.619 408.497 807.784 416.793 815.143 421.182 C 822.266 425.431 831.189 427.873 839.396 425.545 C 855.106 421.087 838.855 398.946 843.626 390.049 C 845.015 389.648 846.129 389.005 847.534 389.602 C 848.008 389.803 920.455 447.925 925.455 452.708 C 936.852 463.613 946.13 476.44 957.781 487.21 C 972.115 500.461 987.814 512.231 1002.42 525.207 C 1013.57 535.114 1023.62 545.889 1033.57 556.974 C 1037.22 561.04 1042.72 566.021 1044.57 571.118 C 1033.5 565.573 944.83 553.154 926.828 551.046 C 903.083 547.01 878.167 545.543 854.144 543.973 C 763.26 538.035 668.041 541.701 583.375 579.053 C 563.784 575.316 543.326 574.342 523.467 572.744 C 519.726 564.974 514.81 561.19 508.039 556.238 C 510.141 553.759 512.662 551.324 512.718 547.888 C 512.825 541.278 506.351 536.121 502.146 531.686 C 504.205 529.603 505.869 527.694 507.384 525.176 C 507.963 522.372 507.277 520.179 506.195 517.617 C 498.976 500.537 481.98 483.408 464.934 476.504 C 461.428 470.972 459.268 464.355 456.438 458.436 C 454.018 453.372 450.024 446.438 444.206 444.741 A 6.64647 6.64647 0 0 0 438.969 445.449 C 431.422 449.974 428.777 461.965 426.499 469.874 C 422.159 472.981 418.802 476.3 415.258 480.238 C 413.644 476.095 412.115 471.789 410.147 467.803 C 408.276 464.012 404.514 459.641 400.379 458.314 C 398.076 457.574 395.561 457.721 393.441 458.927 C 386.779 462.717 385.031 471.295 382.935 478.037 C 373.502 484.432 371.171 490.667 367.203 500.99 L 366.738 500.233 C 361.083 491.124 357.47 497.299 352.791 493.622 C 348.066 489.91 348.26 483.909 341.583 481.095 C 340.214 480.518 338.202 480.73 336.881 481.364 C 329.045 485.127 325.714 497.997 323.253 505.532 C 318.967 501.029 315.579 496.125 312.089 491.005 C 315 489.144 317.576 487.6 319.579 484.71 C 319.785 483.559 320.33 482.01 319.984 480.897 C 318.446 475.95 314.095 472.2 311.407 467.822 C 307.047 460.723 303.938 448.89 295.772 445.108 C 293.528 444.069 291.007 444.031 288.764 445.099 C 281.035 448.778 277.473 461.309 274.464 468.742 C 271.12 471.193 267.609 473.608 264.489 476.338 C 261.801 478.69 259.271 481.648 259.226 485.426 C 259.171 490.044 262.541 492.953 265.5 496.021 C 259.217 502.12 255.883 507.731 252.546 515.689 L 246.025 499.508 C 249.095 497.079 253.145 494.241 254.966 490.694 C 256.126 488.434 256.188 486.432 255.315 484.059 C 254.135 480.85 248.906 478.785 245.999 477.28 C 242.77 471.238 240.441 464.529 237.418 458.328 C 261.383 431.678 288.018 407.527 312.917 381.782 C 350.421 343.004 386.639 302.974 424.396 264.391 C 425.023 265.917 425.667 267.443 426.414 268.914 C 427.977 271.995 430.577 274.653 433.993 275.567 C 443.036 277.987 454.898 266.375 462.422 261.964 z"/>
<path transform="translate(0,0)" fill="rgb(0,0,0)" d="M 882.985 508.867 C 885.289 509.502 886.534 511.126 887.823 513.017 C 890.174 516.466 891.344 519.505 890.516 523.645 C 890.188 523.562 889.858 523.49 889.533 523.396 C 886.752 522.594 884.315 519.289 883.19 516.713 C 881.834 513.609 881.914 512.007 882.985 508.867 z"/>
<path transform="translate(0,0)" fill="rgb(0,0,0)" d="M 896.43 453.595 C 899.885 453.949 903.267 456.012 905.718 458.432 C 908.054 460.739 908.182 462.393 908.171 465.554 C 904.848 464.928 901.523 463.237 899.158 460.785 C 896.801 458.342 896.432 456.921 896.43 453.595 z"/>
<path transform="translate(0,0)" fill="rgb(0,0,0)" d="M 591.286 473.324 C 594.856 474.707 596.124 476.085 598.18 479.39 C 600.176 482.599 601.475 485.741 600.699 489.517 C 597.832 488.47 596.302 486.582 594.606 484.136 C 592.374 480.916 590.578 477.311 591.286 473.324 z"/>
<path transform="translate(0,0)" fill="rgb(0,0,0)" d="M 909.55 483.586 C 912.246 484.225 913.841 485.778 915.616 487.815 C 918.023 490.577 919.78 493.659 919.536 497.402 L 916.519 497.044 C 914.463 495.71 912.619 494.094 911.221 492.064 C 909.192 489.117 908.964 487.003 909.55 483.586 z"/>
<path transform="translate(0,0)" fill="rgb(0,0,0)" d="M 677.126 452.339 C 678.937 452.666 680.174 453.383 681.505 454.617 C 684.927 457.787 687.94 461.757 688.049 466.563 C 687.709 466.545 687.368 466.536 687.028 466.51 C 683.958 466.269 681.865 464.211 679.997 461.929 C 677.577 458.973 676.705 456.088 677.126 452.339 z"/>
<path transform="translate(0,0)" fill="rgb(0,0,0)" d="M 804.486 444.445 C 807.717 445.59 809.942 448.487 811.503 451.437 C 813.286 454.804 813.086 457.108 812.079 460.591 C 809.308 458.552 806.773 455.721 805.106 452.713 C 803.406 449.646 803.489 447.697 804.486 444.445 z"/>
<path transform="translate(0,0)" fill="rgb(0,0,0)" d="M 559.158 409.334 C 562.166 410.305 563.305 411.439 565.081 413.967 C 567.29 417.111 569.539 421.675 568.891 425.598 C 568.694 425.559 568.493 425.533 568.299 425.481 C 567.984 425.397 567.678 425.286 567.367 425.19 C 566.138 424.813 565.146 424.369 564.252 423.402 C 560.84 419.709 558.894 414.33 559.158 409.334 z"/>
<path transform="translate(0,0)" fill="rgb(0,0,0)" d="M 723.152 501.399 C 726.579 501.899 730.309 504.992 732.499 507.624 C 734.889 510.496 735.001 511.766 734.6 515.317 C 731.529 514.518 728.937 512.571 726.712 510.365 C 723.848 507.527 723.118 505.347 723.152 501.399 z"/>
<path transform="translate(0,0)" fill="rgb(0,0,0)" d="M 611.426 342.602 C 614.707 342.942 616.298 344.024 618.323 346.571 C 620.875 349.783 622.032 353.512 621.558 357.569 C 620.147 357.04 618.276 356.62 617.249 355.539 C 613.898 352.009 611.326 347.579 611.426 342.602 z"/>
<path transform="translate(0,0)" fill="rgb(0,0,0)" d="M 543.234 312.289 C 544.484 312.697 545.662 313.228 546.583 314.189 C 549.923 317.679 553.157 323.726 553.102 328.607 C 552.867 328.578 552.631 328.552 552.396 328.518 C 549.039 328.022 547.393 325.887 545.609 323.222 C 543.39 319.908 542.459 316.186 543.234 312.289 z"/>
<path transform="translate(0,0)" fill="rgb(0,0,0)" d="M 646.344 371.374 C 646.511 371.417 646.676 371.468 646.844 371.503 C 649.089 371.968 650.145 372.596 651.746 374.225 C 655.291 377.836 657.341 380.822 657.23 385.918 C 657.075 385.911 656.919 385.916 656.764 385.898 C 653.323 385.507 651.261 383.646 649.281 380.934 C 647.037 377.86 645.793 375.199 646.344 371.374 z"/>
<path transform="translate(0,0)" fill="rgb(0,0,0)" d="M 620.258 524.326 C 622.906 525.111 624.334 526.441 626.046 528.534 C 628.839 531.949 631.211 536.073 630.81 540.594 C 630.6 540.557 630.388 540.53 630.18 540.482 C 629.865 540.41 629.556 540.314 629.243 540.236 C 626.968 539.672 625.827 538.359 624.416 536.574 C 621.636 533.056 619.745 528.853 620.258 524.326 z"/>
<path transform="translate(0,0)" fill="rgb(0,0,0)" d="M 496.753 411.419 C 497.464 411.626 497.614 411.643 498.223 411.895 C 500.169 412.698 500.828 414.139 501.571 416.002 C 503.211 420.114 503.773 425.11 501.98 429.24 C 500.862 428.656 499.904 427.77 498.918 426.984 C 496.501 422.046 495.236 416.836 496.753 411.419 z"/>
<path transform="translate(0,0)" fill="rgb(0,0,0)" d="M 938.792 526.838 C 942.212 527.605 945.217 529.666 947.626 532.188 C 950.42 535.111 950.805 536.739 950.803 540.603 C 950.617 540.581 950.431 540.565 950.246 540.537 C 946.44 539.958 942.427 536.416 940.206 533.358 C 938.372 530.833 938.335 529.875 938.792 526.838 z"/>
<path transform="translate(0,0)" fill="rgb(0,0,0)" d="M 849.126 443.545 C 849.447 443.538 849.767 443.523 850.087 443.524 C 853.294 443.53 854.907 444.828 857.082 447.058 C 859.922 449.969 862.371 453.722 862.295 457.893 L 858.968 457.365 C 854.176 453.762 850.543 449.474 849.126 443.545 z"/>
<path transform="translate(0,0)" fill="rgb(0,0,0)" d="M 323.584 419.563 L 325.178 420.89 C 326.381 425.749 320.595 433.59 318.099 437.737 C 317.863 437.606 317.618 437.491 317.391 437.344 C 316.686 436.885 315.478 436.044 315.353 435.216 C 314.51 429.658 320.421 423.724 323.584 419.563 z"/>
<path transform="translate(0,0)" fill="rgb(0,0,0)" d="M 354.786 443.435 L 357.109 444.917 C 358.1 450.614 353.426 455.85 350.398 460.409 C 348.476 459.199 348.087 459.059 347.194 457.009 C 347.586 451.383 351.367 447.586 354.786 443.435 z"/>
<path transform="translate(0,0)" fill="rgb(0,0,0)" d="M 559.604 365.568 C 561.087 365.61 562.503 365.74 563.701 366.708 C 568.444 370.541 570.803 377.615 571.223 383.483 C 569.576 383.544 568.76 383.282 567.243 382.631 C 563.838 377.67 561.24 371.341 559.604 365.568 z"/>
<path transform="translate(0,0)" fill="rgb(0,0,0)" d="M 399.548 340.313 C 400.715 340.467 401.801 340.892 402.917 341.257 L 403.642 342.945 C 403.159 347.707 399.55 352.467 397.148 356.536 C 395.333 356.075 395.056 355.85 393.756 354.626 C 392.921 349.315 396.833 344.582 399.548 340.313 z"/>
<path transform="translate(0,0)" fill="rgb(0,0,0)" d="M 789.097 510.474 C 789.274 510.488 789.452 510.494 789.628 510.516 C 793.77 511.014 798.617 515.292 801.07 518.544 C 803.043 521.159 803.099 522.166 802.708 525.369 C 799.626 524.831 797.732 523.273 795.454 521.237 C 791.723 517.902 789.392 515.488 789.097 510.474 z"/>
<path transform="translate(0,0)" fill="rgb(0,0,0)" d="M 514.566 463.299 C 516.566 463.627 517.904 463.702 519.245 465.457 C 522.335 469.499 522.383 476.987 521.423 481.749 C 519.779 481.287 518.834 480.594 517.517 479.525 C 514.926 474.36 514.46 469.007 514.566 463.299 z"/>
<path transform="translate(0,0)" fill="rgb(0,0,0)" d="M 424.512 403.251 L 426.995 404.014 L 427.881 405.931 C 427.693 411.653 424.761 416.879 421.749 421.603 C 420.427 420.934 419.197 420.762 418.789 419.237 C 417.545 414.588 422.367 407.318 424.512 403.251 z"/>
<path transform="translate(0,0)" fill="rgb(0,0,0)" d="M 841.876 484.492 C 842.589 484.578 842.451 484.545 843.067 484.67 C 843.255 484.709 843.442 484.753 843.631 484.792 C 846.634 485.403 848.966 487.52 851.104 489.619 C 853.958 492.419 856.205 495.438 856.203 499.546 C 852.964 499.329 850.971 497.843 848.604 495.814 C 844.786 492.541 842.243 489.534 841.876 484.492 z"/>
<path transform="translate(0,0)" fill="rgb(0,0,0)" d="M 470.192 356.156 C 472.228 356.74 472.706 356.923 474.199 358.403 C 475.798 364.12 474.817 369.57 473.89 375.331 C 472.965 375.098 470.695 374.838 470.161 374.121 C 466.984 369.857 469.413 361.055 470.192 356.156 z"/>
<path transform="translate(0,0)" fill="rgb(0,0,0)" d="M 983.062 536.468 C 985.763 536.756 987.448 537.743 989.53 539.409 C 993.717 542.76 997.034 545.771 997.664 551.193 C 993.427 551.227 991.133 549.211 988.179 546.427 C 984.896 543.333 983.173 540.942 983.062 536.468 z"/>
<path transform="translate(0,0)" fill="rgb(0,0,0)" d="M 503.298 352.243 C 504.883 352.732 506.14 353.403 507.115 354.797 C 510.468 359.59 510.78 367.261 509.59 372.786 C 508.202 372.256 507.202 371.323 506.081 370.381 C 503.527 364.535 502.715 358.585 503.298 352.243 z"/>
<path transform="translate(0,0)" fill="rgb(0,0,0)" d="M 744.317 468.569 C 748.604 469.627 754.08 475.107 756.358 478.796 C 758.071 481.572 757.78 482.792 757.065 485.828 C 752.774 483.988 746.558 477.503 744.319 473.446 C 743.115 471.265 743.603 470.876 744.317 468.569 z"/>
<path transform="translate(0,0)" fill="rgb(0,0,0)" d="M 389.521 403.46 L 391.973 404.328 C 393.075 408.966 387.398 417.61 385.218 421.762 C 383.553 421.415 382.694 420.847 381.367 419.801 C 380.525 413.574 386.016 408.259 389.521 403.46 z"/>
<path transform="translate(0,0)" fill="rgb(0,0,0)" d="M 957.513 503.866 C 961.423 504.662 965.188 507.908 967.991 510.621 C 971.048 513.577 972.148 515.249 972.207 519.555 C 972.033 519.536 971.859 519.525 971.686 519.499 C 967.265 518.823 961.308 513.811 958.672 510.256 C 956.75 507.665 957.041 506.846 957.513 503.866 z"/>
<path transform="translate(0,0)" fill="rgb(0,0,0)" d="M 703.384 426.658 C 703.578 426.679 703.774 426.687 703.966 426.719 C 707.947 427.375 710.141 429.483 712.336 432.716 C 714.951 436.567 716.54 441.103 715.707 445.737 C 714.523 445.369 713.381 444.783 712.246 444.281 C 709.273 440.026 703.001 431.862 703.384 426.658 z"/>
<path transform="translate(0,0)" fill="rgb(0,0,0)" d="M 432.606 338.284 C 433.612 338.741 434.439 339.434 435.324 340.089 C 436.733 346.282 431.863 354.147 429.282 359.593 L 426.749 358.466 L 425.868 356.085 C 426.386 349.556 429.531 343.931 432.606 338.284 z"/>
<path transform="translate(0,0)" fill="rgb(0,0,0)" d="M 658.583 487.517 C 662.389 488.553 665.936 493.148 668.213 496.217 C 670.881 499.815 673.116 502.958 672.422 507.588 C 668.452 506.373 667.165 504.711 664.496 501.523 C 660.829 497.142 658.084 493.24 658.583 487.517 z"/>
<path transform="translate(0,0)" fill="rgb(0,0,0)" d="M 604.066 402.526 C 604.262 402.557 604.46 402.584 604.655 402.62 C 607.481 403.13 608.648 404.109 610.225 406.453 A 28.7006 28.7006 0 0 1 614.427 427.808 L 612.635 427.161 C 609.727 424.595 604.537 406.868 604.066 402.526 z"/>
</svg>